# xmcd
#
# Track frame offsets: 
#        150
#        13230
#        26407
#        39855
#        51625
#        65560
#        79575
#        93205
#        106532
#        119940
#        132562
#        144667
#        157920
#        171597
#        186085
#        198060
#        210767
#        225315
#        238187
#        249115
#        260890
#        273442
#        281372
#        291187
#        296185
#
# Disc length: 4019 seconds
#
# Revision: 0
# Processed by: cddbd v1.5.2PL0 Copyright (c) Steve Scherf et al.
# Submitted via: ExactAudioCopyFreeDBPlugin 1.0
#
DISCID=6d0fb119
DTITLE=James "Stump" Johnson - Complete Recorded Works (1929-1964)
DYEAR=1994
DGENRE=Blues
TTITLE0=The Duck-Yas-Yas-Yas
TTITLE1=The Snitchers Blues
TTITLE2=Bound to Be a Monkey
TTITLE3=My Babe Blues
TTITLE4=Jones Law Blues
TTITLE5=My Babe Blues
TTITLE6=Transom Blues (Bury That Thing)
TTITLE7=Soaking Wet Blues
TTITLE8=Kind Babe Blues
TTITLE9=What You Do What I Asked You To
TTITLE10=The Duck's Yas-Yas-Yas
TTITLE11=Heart Is Right Blues
TTITLE12=Low Moanin' Blues
TTITLE13=Snitcher's Blues
TTITLE14=Baby B. Blues
TTITLE15=You Buzzard You
TTITLE16=Sail On Black Sue
TTITLE17=Barrel of Whiskey Blues
TTITLE18=Steady Grindin'
TTITLE19=Money Johnson
TTITLE20=Don't Give My Lard Away
TTITLE21=The Snitcher's Blues
TTITLE22=Snitcher's Blues No. 2
TTITLE23=Bound to Be a Monkey
TTITLE24=The Duck's Yas Yas Yas
EXTD=
EXTT0=
EXTT1=
EXTT2=
EXTT3=
EXTT4=
EXTT5=
EXTT6=
EXTT7=
EXTT8=
EXTT9=
EXTT10=
EXTT11=
EXTT12=
EXTT13=
EXTT14=
EXTT15=
EXTT16=
EXTT17=
EXTT18=
EXTT19=
EXTT20=
EXTT21=
EXTT22=
EXTT23=
EXTT24=
PLAYORDER=
